<svg width="1175" height="215" viewBox="0 0 1175 215" fill="none" xmlns="http://www.w3.org/2000/svg">
<g filter="url(#filter0_d_612_1294)">
<path d="M147.582 0.465017H10V32.6375H147.538C150.823 32.4241 154.115 32.9099 157.196 34.0625C160.277 35.2151 163.074 37.0079 165.402 39.3211C167.729 41.6343 169.533 44.4146 170.693 47.4762C171.853 50.5378 172.342 53.8101 172.127 57.0745C172.342 60.3388 171.853 63.6112 170.693 66.6727C169.533 69.7343 167.729 72.5146 165.402 74.8278C163.074 77.141 160.277 78.9338 157.196 80.0864C154.115 81.239 150.823 81.7248 147.538 81.5115H42.3723V64.8099H10V194.686H147.538C158.838 194.628 169.866 191.239 179.226 184.948C188.586 178.657 195.858 169.747 200.119 159.347C204.381 148.946 205.442 137.523 203.167 126.523C200.892 115.522 195.384 105.441 187.34 97.5537C192.79 92.2933 197.123 86.0012 200.086 79.0488C203.048 72.0963 204.579 64.6245 204.588 57.0745C204.647 49.6204 203.212 42.2291 200.368 35.3316C197.523 28.4341 193.326 22.1683 188.02 16.8993C182.714 11.6303 176.406 7.46366 169.463 4.64212C162.521 1.82058 155.083 0.400626 147.582 0.465017ZM147.582 162.514H42.3723V113.684H147.627C150.911 113.471 154.204 113.956 157.284 115.109C160.365 116.262 163.163 118.054 165.49 120.368C167.818 122.681 169.622 125.461 170.781 128.523C171.941 131.584 172.43 134.857 172.215 138.121C172.424 141.386 171.929 144.657 170.764 147.717C169.599 150.776 167.79 153.553 165.458 155.862C163.126 158.171 160.325 159.959 157.243 161.106C154.16 162.253 150.867 162.733 147.582 162.514ZM850.265 138.077C850.373 152.798 844.658 166.972 834.351 177.544C824.044 188.117 809.969 194.242 795.161 194.598H658.065V162.514H793.215C796.5 162.727 799.792 162.241 802.873 161.089C805.954 159.936 808.751 158.143 811.079 155.83C813.406 153.517 815.21 150.737 816.37 147.675C817.53 144.614 818.019 141.341 817.804 138.077C818.019 134.813 817.53 131.54 816.37 128.479C815.21 125.417 813.406 122.637 811.079 120.324C808.751 118.01 805.954 116.218 802.873 115.065C799.792 113.912 796.5 113.427 793.215 113.64H715.424C700.791 113.047 686.963 106.824 676.862 96.2849C666.761 85.7458 661.178 71.7169 661.294 57.1624C661.12 42.5701 666.677 28.4853 676.784 17.899C686.891 7.31273 700.752 1.05871 715.424 0.465017H832.044V32.6375H718.255C714.97 32.4241 711.677 32.9099 708.597 34.0625C705.516 35.2151 702.719 37.0079 700.391 39.3211C698.063 41.6343 696.26 44.4146 695.1 47.4762C693.94 50.5378 693.451 53.8101 693.666 57.0745C693.451 60.3388 693.94 63.6112 695.1 66.6727C696.26 69.7343 698.063 72.5146 700.391 74.8278C702.719 77.141 705.516 78.9338 708.597 80.0864C711.677 81.239 714.97 81.7248 718.255 81.5115H795.073C809.904 81.8458 824.008 87.9666 834.335 98.5511C844.663 109.136 850.385 123.334 850.265 138.077ZM490.012 113.64V194.686H457.551V113.684C457.551 107.203 454.961 100.987 450.35 96.4043C445.738 91.8215 439.484 89.2469 432.963 89.2469C426.441 89.2469 420.187 91.8215 415.576 96.4043C410.965 100.987 408.374 107.203 408.374 113.684V194.686H376.046V113.684C376.046 76.4131 401.563 57.0745 433.007 57.0745C464.451 57.0745 489.924 76.4131 489.924 113.684L490.012 113.64ZM1083.59 0.465017V32.6375C1080.34 32.5592 1077.11 33.1377 1074.09 34.3381C1071.07 35.5384 1068.33 37.3356 1066.03 39.6205C1063.73 41.9055 1061.92 44.6307 1060.72 47.631C1059.51 50.6312 1058.93 53.844 1059 57.0745H1083.59V89.2469H1059V194.73H1026.63V89.2469H1014.34V57.0745H1026.63C1026.64 42.0643 1032.65 27.6722 1043.33 17.0584C1054.01 6.44459 1068.49 0.476657 1083.59 0.465017ZM1140.2 89.2469V138.077C1140.12 141.307 1140.7 144.52 1141.91 147.52C1143.12 150.521 1144.93 153.246 1147.23 155.531C1149.53 157.816 1152.27 159.613 1155.29 160.813C1158.31 162.014 1161.54 162.592 1164.79 162.514V194.686C1149.69 194.675 1135.2 188.707 1124.52 178.093C1113.84 167.479 1107.84 153.087 1107.83 138.077V89.2469H1095.53V57.0745H1107.83V0.465017H1140.2V57.0745H1164.79V89.2469H1140.2ZM290.295 57.0745C276.59 57.0397 263.182 61.0468 251.77 68.5885C240.358 76.1302 231.454 86.8675 226.185 99.441C220.916 112.015 219.519 125.859 222.171 139.222C224.824 152.585 231.406 164.865 241.084 174.509C250.763 184.152 263.102 190.725 276.541 193.395C289.98 196.065 303.915 194.712 316.58 189.508C329.245 184.304 340.071 175.482 347.689 164.159C355.307 152.837 359.373 139.523 359.373 125.902C359.373 107.679 352.101 90.1984 339.151 77.2957C326.202 64.393 308.632 57.121 290.295 57.0745ZM290.295 162.558C283 162.558 275.869 160.408 269.803 156.38C263.738 152.353 259.011 146.628 256.219 139.93C253.427 133.232 252.697 125.862 254.12 118.751C255.543 111.641 259.056 105.109 264.214 99.9831C269.372 94.8567 275.944 91.3656 283.099 89.9512C290.254 88.5369 297.67 89.2628 304.409 92.0371C311.149 94.8115 316.909 99.5097 320.962 105.538C325.015 111.566 327.178 118.653 327.178 125.902C327.166 135.616 323.275 144.929 316.359 151.793C309.444 158.658 300.069 162.514 290.295 162.514V162.558ZM935.972 57.0745C922.267 57.0397 908.86 61.0468 897.447 68.5885C886.035 76.1302 877.131 86.8675 871.862 99.441C866.593 112.015 865.196 125.859 867.849 139.222C870.501 152.585 877.083 164.865 886.761 174.509C896.44 184.152 908.779 190.725 922.219 193.395C935.658 196.065 949.592 194.712 962.257 189.508C974.922 184.304 985.749 175.482 993.366 164.159C1000.98 152.837 1005.05 139.523 1005.05 125.902C1005.05 107.663 997.766 90.17 984.797 77.2647C971.828 64.3595 954.236 57.0978 935.883 57.0745H935.972ZM935.972 162.558C928.677 162.558 921.546 160.408 915.481 156.38C909.415 152.353 904.688 146.628 901.896 139.93C899.104 133.232 898.374 125.862 899.797 118.751C901.22 111.641 904.733 105.109 909.891 99.9831C915.05 94.8567 921.621 91.3656 928.776 89.9512C935.931 88.5369 943.347 89.2628 950.086 92.0371C956.826 94.8115 962.586 99.5097 966.639 105.538C970.692 111.566 972.855 118.653 972.855 125.902C972.849 130.72 971.888 135.489 970.026 139.937C968.164 144.385 965.439 148.424 962.005 151.824C958.571 155.225 954.497 157.919 950.015 159.753C945.533 161.587 940.731 162.525 935.883 162.514L935.972 162.558ZM612.426 67.7107C599.431 59.5913 584.09 55.9951 568.815 57.4876C553.539 58.9802 539.196 65.4769 528.042 75.9558C516.888 86.4348 509.555 100.301 507.197 115.375C504.839 130.448 507.59 145.873 515.016 159.222C522.443 172.572 534.124 183.09 548.222 189.121C562.321 195.152 578.037 196.355 592.898 192.539C607.759 188.724 620.922 180.107 630.318 168.044C639.713 155.981 644.807 141.157 644.798 125.902V0.465017H612.426V67.7107ZM575.542 162.514C568.248 162.514 561.117 160.364 555.051 156.336C548.986 152.309 544.258 146.584 541.467 139.886C538.675 133.188 537.945 125.818 539.368 118.707C540.791 111.597 544.304 105.065 549.462 99.9391C554.62 94.8127 561.192 91.3216 568.347 89.9073C575.501 88.4929 582.917 89.2188 589.657 91.9932C596.396 94.7676 602.157 99.4658 606.21 105.494C610.262 111.522 612.426 118.609 612.426 125.858C612.426 135.58 608.54 144.904 601.623 151.778C594.706 158.652 585.324 162.514 575.542 162.514Z" fill="url(#paint0_linear_612_1294)" shape-rendering="crispEdges"/>
</g>
<defs>
<filter id="filter0_d_612_1294" x="0" y="0.462921" width="1174.79" height="214.267" filterUnits="userSpaceOnUse" color-interpolation-filters="sRGB">
<feFlood flood-opacity="0" result="BackgroundImageFix"/>
<feColorMatrix in="SourceAlpha" type="matrix" values="0 0 0 0 0 0 0 0 0 0 0 0 0 0 0 0 0 0 127 0" result="hardAlpha"/>
<feOffset dy="10"/>
<feGaussianBlur stdDeviation="5"/>
<feComposite in2="hardAlpha" operator="out"/>
<feColorMatrix type="matrix" values="0 0 0 0 0 0 0 0 0 0 0 0 0 0 0 0 0 0 1 0"/>
<feBlend mode="normal" in2="BackgroundImageFix" result="effect1_dropShadow_612_1294"/>
<feBlend mode="normal" in="SourceGraphic" in2="effect1_dropShadow_612_1294" result="shape"/>
</filter>
<linearGradient id="paint0_linear_612_1294" x1="587.395" y1="0.462921" x2="587.395" y2="194.73" gradientUnits="userSpaceOnUse">
<stop stop-color="#DBDDE1" stop-opacity="0.05"/>
<stop offset="1" stop-color="#DBDDE1" stop-opacity="0"/>
</linearGradient>
</defs>
</svg>
