<svg width="160" height="28" viewBox="0 0 160 28" fill="none" xmlns="http://www.w3.org/2000/svg">
<g clip-path="url(#clip0_1101_627)">
<path d="M19.0625 -4.1598e-05H0V4.48525H19.0564C19.5115 4.4555 19.9677 4.52324 20.3945 4.68393C20.8213 4.84462 21.2089 5.09456 21.5314 5.41705C21.8539 5.73954 22.1039 6.12715 22.2646 6.55398C22.4252 6.98081 22.493 7.43702 22.4632 7.89212C22.493 8.34722 22.4252 8.80343 22.2646 9.23025C22.1039 9.65708 21.8539 10.0447 21.5314 10.3672C21.2089 10.6897 20.8213 10.9396 20.3945 11.1003C19.9677 11.261 19.5115 11.3287 19.0564 11.299H4.48529V8.97055H0V27.0772H19.0564C20.622 27.0691 22.1499 26.5966 23.4468 25.7195C24.7437 24.8425 25.7512 23.6003 26.3417 22.1503C26.9322 20.7003 27.0791 19.1077 26.7639 17.5742C26.4487 16.0406 25.6856 14.6351 24.5711 13.5355C25.3261 12.8021 25.9266 11.9249 26.337 10.9556C26.7475 9.98638 26.9596 8.9447 26.9608 7.89212C26.969 6.85291 26.7702 5.82247 26.3761 4.86086C25.982 3.89925 25.4004 3.0257 24.6653 2.29113C23.9301 1.55656 23.0561 0.975668 22.0942 0.582306C21.1323 0.188943 20.1017 -0.00901866 19.0625 -4.1598e-05ZM19.0625 22.5919H4.48529V15.7843H19.0686C19.5237 15.7545 19.9799 15.8223 20.4068 15.9829C20.8336 16.1436 21.2212 16.3936 21.5437 16.7161C21.8662 17.0386 22.1161 17.4262 22.2768 17.853C22.4375 18.2798 22.5052 18.736 22.4755 19.1911C22.5044 19.6463 22.4359 20.1024 22.2744 20.5289C22.113 20.9555 21.8623 21.3426 21.5392 21.6645C21.2162 21.9864 20.8281 22.2357 20.401 22.3956C19.9739 22.5555 19.5175 22.6224 19.0625 22.5919ZM116.422 19.185C116.437 21.2373 115.645 23.2133 114.217 24.6873C112.789 26.1613 110.839 27.0151 108.787 27.0649H89.7917V22.5919H108.517C108.972 22.6216 109.428 22.5539 109.855 22.3932C110.282 22.2325 110.67 21.9826 110.992 21.6601C111.315 21.3376 111.565 20.95 111.725 20.5231C111.886 20.0963 111.954 19.6401 111.924 19.185C111.954 18.7299 111.886 18.2737 111.725 17.8469C111.565 17.42 111.315 17.0324 110.992 16.7099C110.67 16.3875 110.282 16.1375 109.855 15.9768C109.428 15.8161 108.972 15.7484 108.517 15.7781H97.739C95.7115 15.6955 93.7955 14.8279 92.396 13.3586C90.9965 11.8893 90.223 9.93347 90.239 7.90437C90.215 5.87 90.9849 3.90638 92.3853 2.43051C93.7856 0.954626 95.7061 0.0827281 97.739 -4.1598e-05H113.897V4.48525H98.1311C97.676 4.4555 97.2198 4.52324 96.793 4.68393C96.3662 4.84462 95.9786 5.09456 95.6561 5.41705C95.3336 5.73954 95.0836 6.12715 94.9229 6.55398C94.7622 6.98081 94.6945 7.43702 94.7243 7.89212C94.6945 8.34722 94.7622 8.80343 94.9229 9.23025C95.0836 9.65708 95.3336 10.0447 95.6561 10.3672C95.9786 10.6897 96.3662 10.9396 96.793 11.1003C97.2198 11.261 97.676 11.3287 98.1311 11.299H108.775C110.829 11.3456 112.784 12.1989 114.214 13.6746C115.645 15.1502 116.438 17.1296 116.422 19.185ZM66.5074 15.7781V27.0772H62.0098V15.7843C62.0098 14.8807 61.6509 14.0142 61.012 13.3753C60.373 12.7363 59.5065 12.3774 58.6029 12.3774C57.6994 12.3774 56.8328 12.7363 56.1939 13.3753C55.555 14.0142 55.1961 14.8807 55.1961 15.7843V27.0772H50.7169V15.7843C50.7169 10.5882 54.2525 7.89212 58.6091 7.89212C62.9657 7.89212 66.4951 10.5882 66.4951 15.7843L66.5074 15.7781ZM148.75 -4.1598e-05V4.48525C148.3 4.47434 147.852 4.55499 147.433 4.72234C147.015 4.88969 146.635 5.14023 146.317 5.45879C145.998 5.77735 145.748 6.15728 145.58 6.57556C145.413 6.99384 145.332 7.44174 145.343 7.89212H148.75V12.3774H145.343V27.0833H140.858V12.3774H139.154V7.89212H140.858C140.859 5.79948 141.691 3.79303 143.171 2.31331C144.651 0.833595 146.657 0.00158123 148.75 -4.1598e-05ZM156.593 12.3774V19.185C156.582 19.6354 156.663 20.0833 156.83 20.5016C156.998 20.9198 157.248 21.2998 157.567 21.6183C157.885 21.9369 158.265 22.1874 158.683 22.3548C159.102 22.5221 159.55 22.6028 160 22.5919V27.0772C157.907 27.0755 155.901 26.2435 154.421 24.7638C152.941 23.2841 152.109 21.2776 152.108 19.185V12.3774H150.404V7.89212H152.108V-4.1598e-05H156.593V7.89212H160V12.3774H156.593ZM38.8358 7.89212C36.9369 7.88727 35.0793 8.44591 33.4981 9.49734C31.9169 10.5488 30.6832 12.0457 29.9532 13.7986C29.2231 15.5515 29.0296 17.4817 29.3971 19.3446C29.7646 21.2076 30.6765 22.9197 32.0175 24.2641C33.3585 25.6085 35.0682 26.5248 36.9302 26.8971C38.7923 27.2693 40.7229 27.0807 42.4777 26.3552C44.2325 25.6297 45.7325 24.3998 46.788 22.8213C47.8435 21.2428 48.4069 19.3866 48.4069 17.4877C48.4069 14.947 47.3993 12.5101 45.6051 10.7112C43.8108 8.91243 41.3764 7.89861 38.8358 7.89212ZM38.8358 22.598C37.8251 22.598 36.837 22.2983 35.9967 21.7368C35.1563 21.1752 34.5013 20.3771 34.1145 19.4433C33.7277 18.5095 33.6265 17.482 33.8237 16.4907C34.0209 15.4994 34.5076 14.5889 35.2223 13.8742C35.937 13.1595 36.8475 12.6728 37.8388 12.4756C38.8301 12.2784 39.8576 12.3796 40.7914 12.7664C41.7252 13.1532 42.5233 13.8082 43.0848 14.6486C43.6464 15.489 43.9461 16.477 43.9461 17.4877C43.9445 18.842 43.4053 20.1402 42.4471 21.0973C41.489 22.0543 40.1901 22.5919 38.8358 22.5919V22.598ZM128.297 7.89212C126.398 7.88727 124.54 8.44591 122.959 9.49734C121.378 10.5488 120.144 12.0457 119.414 13.7986C118.684 15.5515 118.49 17.4817 118.858 19.3446C119.225 21.2076 120.137 22.9197 121.478 24.2641C122.819 25.6085 124.529 26.5248 126.391 26.8971C128.253 27.2693 130.184 27.0807 131.938 26.3552C133.693 25.6297 135.193 24.3998 136.249 22.8213C137.304 21.2428 137.868 19.3866 137.868 17.4877C137.868 14.9449 136.858 12.5061 135.061 10.7069C133.265 8.90776 130.827 7.89536 128.284 7.89212H128.297ZM128.297 22.598C127.286 22.598 126.298 22.2983 125.457 21.7368C124.617 21.1752 123.962 20.3771 123.575 19.4433C123.188 18.5095 123.087 17.482 123.284 16.4907C123.482 15.4994 123.968 14.5889 124.683 13.8742C125.398 13.1595 126.308 12.6728 127.3 12.4756C128.291 12.2784 129.318 12.3796 130.252 12.7664C131.186 13.1532 131.984 13.8082 132.546 14.6486C133.107 15.489 133.407 16.477 133.407 17.4877C133.406 18.1593 133.273 18.8242 133.015 19.4443C132.757 20.0644 132.379 20.6276 131.904 21.1016C131.428 21.5757 130.863 21.9513 130.242 22.207C129.621 22.4627 128.956 22.5935 128.284 22.5919L128.297 22.598ZM83.4681 9.37496C81.6677 8.243 79.5422 7.74163 77.4257 7.94972C75.3092 8.1578 73.322 9.06353 71.7765 10.5244C70.231 11.9854 69.2151 13.9186 68.8883 16.02C68.5616 18.1214 68.9427 20.2718 69.9717 22.133C71.0007 23.9942 72.6192 25.4605 74.5726 26.3013C76.526 27.1421 78.7034 27.3097 80.7625 26.7778C82.8216 26.2459 84.6454 25.0446 85.9472 23.3629C87.2489 21.6811 87.9546 19.6144 87.9534 17.4877V-4.1598e-05H83.4681V9.37496ZM78.3578 22.5919C77.3471 22.5919 76.3591 22.2922 75.5187 21.7306C74.6783 21.1691 74.0233 20.371 73.6365 19.4372C73.2498 18.5034 73.1486 17.4759 73.3457 16.4846C73.5429 15.4933 74.0296 14.5827 74.7443 13.8681C75.459 13.1534 76.3696 12.6667 77.3609 12.4695C78.3522 12.2723 79.3797 12.3735 80.3135 12.7603C81.2473 13.1471 82.0454 13.8021 82.6069 14.6425C83.1684 15.4828 83.4681 16.4709 83.4681 17.4816C83.4681 18.8369 82.9297 20.1367 81.9714 21.0951C81.013 22.0535 79.7132 22.5919 78.3578 22.5919Z" fill="#222222"/>
</g>
<defs>
<clipPath id="clip0_1101_627">
<rect width="160" height="27.0772" fill="white"/>
</clipPath>
</defs>
</svg>
