<svg width="0" height="0" class="hidden">
  <symbol id="soc-viber" xmlns="http://www.w3.org/2000/svg" viewBox="0 0 19 20"><path fill-rule="evenodd" clip-rule="evenodd" d="M16.074 3.12A9.242 9.242 0 0 0 9.494.394C4.367.393.194 4.565.192 9.694c0 1.64.427 3.24 1.241 4.65l-1.32 4.821 4.932-1.294a9.29 9.29 0 0 0 4.445 1.133h.004c5.127 0 9.3-4.174 9.302-9.302a9.245 9.245 0 0 0-2.722-6.581Zm-6.58 14.313h-.003a7.721 7.721 0 0 1-3.935-1.078l-.282-.168-2.927.768.781-2.853-.184-.293a7.712 7.712 0 0 1-1.182-4.114c.002-4.263 3.47-7.731 7.735-7.731 2.065 0 4.007.806 5.466 2.267a7.686 7.686 0 0 1 2.263 5.47c-.002 4.263-3.47 7.732-7.732 7.732Zm4.241-5.79c-.232-.117-1.375-.68-1.588-.757-.213-.078-.368-.116-.523.116-.155.233-.6.756-.736.912-.136.155-.271.174-.504.058-.232-.117-.98-.362-1.869-1.154-.69-.616-1.157-1.377-1.293-1.61-.135-.233-.001-.347.102-.474.252-.313.504-.64.581-.795.078-.156.039-.291-.02-.408-.057-.116-.522-1.26-.716-1.726-.189-.453-.38-.391-.523-.398a9.29 9.29 0 0 0-.445-.009.854.854 0 0 0-.62.291c-.213.233-.814.795-.814 1.94 0 1.143.833 2.249.95 2.404.116.155 1.639 2.503 3.97 3.51.555.239.988.382 1.325.489a3.187 3.187 0 0 0 1.464.092c.447-.067 1.375-.562 1.57-1.105.193-.543.193-1.008.135-1.105-.058-.097-.213-.155-.446-.272Z" ></path></symbol>
  
  <symbol id="soc-tg" xmlns="http://www.w3.org/2000/svg" viewBox="0 0 20 20"><g clip-path="url(#a)"><path d="m.338 9.609 4.404 1.643 1.705 5.483c.109.35.538.48.823.248l2.455-2.002a.732.732 0 0 1 .893-.025l4.428 3.215a.519.519 0 0 0 .813-.314l3.243-15.602a.52.52 0 0 0-.695-.59L.332 8.637a.52.52 0 0 0 .006.972Zm5.834.768 8.607-5.301c.155-.095.314.114.181.237l-7.103 6.603c-.25.233-.411.544-.457.882l-.242 1.793c-.032.24-.368.263-.434.031l-.93-3.27a.867.867 0 0 1 .378-.975Z" ></path></g></symbol>
  
  <symbol id="quote" xmlns="http://www.w3.org/2000/svg" viewBox="0 0 165 173"><path d="m3 142.513-.6-27.6c21.2-7.6 31.8-24.8 31.8-51.6H0v-63h61.2v58.8c0 44.8-19.4 72.6-58.2 83.4Zm103.2 0-.6-27.6c21.2-7.6 31.8-24.8 31.8-51.6h-34.2v-63H165v58.8c0 44.8-19.6 72.6-58.8 83.4Z" opacity="0.2"></path><path d="m3 152.513-.6-27.6c21.2-7.6 31.8-24.8 31.8-51.6H0v-63h61.2v58.8c0 44.8-19.4 72.6-58.2 83.4Zm103.2 0-.6-27.6c21.2-7.6 31.8-24.8 31.8-51.6h-34.2v-63H165v58.8c0 44.8-19.6 72.6-58.8 83.4Z" opacity="0.5"></path><path d="m3 172.513-.6-27.6c21.2-7.6 31.8-24.8 31.8-51.6H0v-63h61.2v58.8c0 44.8-19.4 72.6-58.2 83.4Zm103.2 0-.6-27.6c21.2-7.6 31.8-24.8 31.8-51.6h-34.2v-63H165v58.8c0 44.8-19.6 72.6-58.8 83.4Z"></path></symbol>
  
  <symbol id="plus" xmlns="http://www.w3.org/2000/svg" viewBox="0 0 14 14"><path  d="M6.5.5h1v13h-1z"></path><path  d="M.5 6.5h13v1H.5z"></path></symbol>
  
  <symbol id="info" xmlns="http://www.w3.org/2000/svg" viewBox="0 0 20 31"><path fill-rule="evenodd" clip-rule="evenodd" d="M18.743.358a2.186 2.186 0 0 0-2.986.8l-1.113 1.928 3.785 2.185 1.114-1.928a2.186 2.186 0 0 0-.8-2.985Zm-1.406 6.806L13.55 4.98.458 27.657a2.186 2.186 0 0 0 3.785 2.185L17.337 7.164Z" ></path></symbol>
  
  <symbol id="file" xmlns="http://www.w3.org/2000/svg" viewBox="0 0 13 13"><path d="M2.191 12.792c-.55 0-1.08-.228-1.501-.65a2.413 2.413 0 0 1 0-3.401L7.98.999c1.137-1.14 2.88-1.037 4.151.236.57.571.89 1.394.878 2.259-.012.856-.347 1.675-.918 2.247l-5.51 5.866a.405.405 0 0 1-.574.018.408.408 0 0 1-.017-.576l5.518-5.875c.432-.432.68-1.046.688-1.692.01-.646-.224-1.255-.64-1.671-.78-.782-2.049-1.191-2.993-.245l-7.29 7.742a1.598 1.598 0 0 0-.009 2.258c.29.29.635.432 1.001.41.363-.023.736-.209 1.05-.524l5.801-6.174c.21-.21.633-.727.203-1.158-.244-.244-.415-.229-.47-.224-.161.014-.35.125-.544.32L3.94 8.86a.407.407 0 0 1-.592-.558L7.721 3.65c.344-.346.696-.533 1.054-.565.28-.025.695.035 1.118.46.63.63.551 1.554-.194 2.3L3.9 12.02c-.464.465-1.023.735-1.584.77a1.763 1.763 0 0 1-.124.003Z" ></path></symbol>

  <symbol id="close" xmlns="http://www.w3.org/2000/svg" viewBox="0 0 29 26"><path fill-rule="evenodd" clip-rule="evenodd" d="M12.226 13 .5 23.888 2.774 26 14.5 15.112 26.226 26l2.274-2.112L16.774 13 28.5 2.112 26.226 0 14.5 10.888 2.774 0 .5 2.112 12.226 13Z"></path></symbol>

  <symbol id="arrow-right" xmlns="http://www.w3.org/2000/svg" viewBox="0 0 14 12"><path fill-rule="evenodd" clip-rule="evenodd" d="M.848 6.172h10.155L5.955 11.22h1.587l4.817-4.817.794-.794L7.542 0H5.955l5.05 5.05H.848v1.122Z" ></path></symbol>

  <symbol id="arrow-left" xmlns="http://www.w3.org/2000/svg" viewBox="0 0 10 9"><path fill-rule="evenodd" clip-rule="evenodd" d="M9.774 4.018H1.727L5.728.017H4.471L.653 3.834l-.629.629L4.47 8.908h1.257l-4-4.001h8.047v-.89Z" ></path></symbol>
  
</svg>