<svg width="0" height="0" class="hidden">
  <symbol id="soc-viber" xmlns="http://www.w3.org/2000/svg" viewBox="0 0 19 20"><path fill-rule="evenodd" clip-rule="evenodd" d="M16.074 3.12A9.242 9.242 0 0 0 9.494.394C4.367.393.194 4.565.192 9.694c0 1.64.427 3.24 1.241 4.65l-1.32 4.821 4.932-1.294a9.29 9.29 0 0 0 4.445 1.133h.004c5.127 0 9.3-4.174 9.302-9.302a9.245 9.245 0 0 0-2.722-6.581Zm-6.58 14.313h-.003a7.721 7.721 0 0 1-3.935-1.078l-.282-.168-2.927.768.781-2.853-.184-.293a7.712 7.712 0 0 1-1.182-4.114c.002-4.263 3.47-7.731 7.735-7.731 2.065 0 4.007.806 5.466 2.267a7.686 7.686 0 0 1 2.263 5.47c-.002 4.263-3.47 7.732-7.732 7.732Zm4.241-5.79c-.232-.117-1.375-.68-1.588-.757-.213-.078-.368-.116-.523.116-.155.233-.6.756-.736.912-.136.155-.271.174-.504.058-.232-.117-.98-.362-1.869-1.154-.69-.616-1.157-1.377-1.293-1.61-.135-.233-.001-.347.102-.474.252-.313.504-.64.581-.795.078-.156.039-.291-.02-.408-.057-.116-.522-1.26-.716-1.726-.189-.453-.38-.391-.523-.398a9.29 9.29 0 0 0-.445-.009.854.854 0 0 0-.62.291c-.213.233-.814.795-.814 1.94 0 1.143.833 2.249.95 2.404.116.155 1.639 2.503 3.97 3.51.555.239.988.382 1.325.489a3.187 3.187 0 0 0 1.464.092c.447-.067 1.375-.562 1.57-1.105.193-.543.193-1.008.135-1.105-.058-.097-.213-.155-.446-.272Z" ></path></symbol>
  
  <symbol id="soc-tg" xmlns="http://www.w3.org/2000/svg" viewBox="0 0 20 20"><g clip-path="url(#a)"><path d="m.338 9.609 4.404 1.643 1.705 5.483c.109.35.538.48.823.248l2.455-2.002a.732.732 0 0 1 .893-.025l4.428 3.215a.519.519 0 0 0 .813-.314l3.243-15.602a.52.52 0 0 0-.695-.59L.332 8.637a.52.52 0 0 0 .006.972Zm5.834.768 8.607-5.301c.155-.095.314.114.181.237l-7.103 6.603c-.25.233-.411.544-.457.882l-.242 1.793c-.032.24-.368.263-.434.031l-.93-3.27a.867.867 0 0 1 .378-.975Z" ></path></g></symbol>
  
  <symbol id="quote" xmlns="http://www.w3.org/2000/svg" viewBox="0 0 165 173"><path d="m3 142.513-.6-27.6c21.2-7.6 31.8-24.8 31.8-51.6H0v-63h61.2v58.8c0 44.8-19.4 72.6-58.2 83.4Zm103.2 0-.6-27.6c21.2-7.6 31.8-24.8 31.8-51.6h-34.2v-63H165v58.8c0 44.8-19.6 72.6-58.8 83.4Z" opacity="0.2"></path><path d="m3 152.513-.6-27.6c21.2-7.6 31.8-24.8 31.8-51.6H0v-63h61.2v58.8c0 44.8-19.4 72.6-58.2 83.4Zm103.2 0-.6-27.6c21.2-7.6 31.8-24.8 31.8-51.6h-34.2v-63H165v58.8c0 44.8-19.6 72.6-58.8 83.4Z" opacity="0.5"></path><path d="m3 172.513-.6-27.6c21.2-7.6 31.8-24.8 31.8-51.6H0v-63h61.2v58.8c0 44.8-19.4 72.6-58.2 83.4Zm103.2 0-.6-27.6c21.2-7.6 31.8-24.8 31.8-51.6h-34.2v-63H165v58.8c0 44.8-19.6 72.6-58.8 83.4Z"></path></symbol>
  
  <symbol id="plus" xmlns="http://www.w3.org/2000/svg" viewBox="0 0 14 14"><path  d="M6.5.5h1v13h-1z"></path><path  d="M.5 6.5h13v1H.5z"></path></symbol>
  
  <symbol id="info" xmlns="http://www.w3.org/2000/svg" viewBox="0 0 20 31"><path fill-rule="evenodd" clip-rule="evenodd" d="M18.743.358a2.186 2.186 0 0 0-2.986.8l-1.113 1.928 3.785 2.185 1.114-1.928a2.186 2.186 0 0 0-.8-2.985Zm-1.406 6.806L13.55 4.98.458 27.657a2.186 2.186 0 0 0 3.785 2.185L17.337 7.164Z" ></path></symbol>
  
  <symbol id="file" xmlns="http://www.w3.org/2000/svg" viewBox="0 0 13 13"><path d="M2.191 12.792c-.55 0-1.08-.228-1.501-.65a2.413 2.413 0 0 1 0-3.401L7.98.999c1.137-1.14 2.88-1.037 4.151.236.57.571.89 1.394.878 2.259-.012.856-.347 1.675-.918 2.247l-5.51 5.866a.405.405 0 0 1-.574.018.408.408 0 0 1-.017-.576l5.518-5.875c.432-.432.68-1.046.688-1.692.01-.646-.224-1.255-.64-1.671-.78-.782-2.049-1.191-2.993-.245l-7.29 7.742a1.598 1.598 0 0 0-.009 2.258c.29.29.635.432 1.001.41.363-.023.736-.209 1.05-.524l5.801-6.174c.21-.21.633-.727.203-1.158-.244-.244-.415-.229-.47-.224-.161.014-.35.125-.544.32L3.94 8.86a.407.407 0 0 1-.592-.558L7.721 3.65c.344-.346.696-.533 1.054-.565.28-.025.695.035 1.118.46.63.63.551 1.554-.194 2.3L3.9 12.02c-.464.465-1.023.735-1.584.77a1.763 1.763 0 0 1-.124.003Z" ></path></symbol>

  <symbol id="close" xmlns="http://www.w3.org/2000/svg" viewBox="0 0 29 26"><path fill-rule="evenodd" clip-rule="evenodd" d="M12.226 13 .5 23.888 2.774 26 14.5 15.112 26.226 26l2.274-2.112L16.774 13 28.5 2.112 26.226 0 14.5 10.888 2.774 0 .5 2.112 12.226 13Z"></path></symbol>

  <symbol id="arrow-right" xmlns="http://www.w3.org/2000/svg" viewBox="0 0 14 12"><path fill-rule="evenodd" clip-rule="evenodd" d="M.848 6.172h10.155L5.955 11.22h1.587l4.817-4.817.794-.794L7.542 0H5.955l5.05 5.05H.848v1.122Z" ></path></symbol>

  <symbol id="arrow-left" xmlns="http://www.w3.org/2000/svg" viewBox="0 0 10 9"><path fill-rule="evenodd" clip-rule="evenodd" d="M9.774 4.018H1.727L5.728.017H4.471L.653 3.834l-.629.629L4.47 8.908h1.257l-4-4.001h8.047v-.89Z" ></path></symbol>

  <symbol id="arr-down" viewBox="0 0 22 12" xmlns="http://www.w3.org/2000/svg"><path fill-rule="evenodd" clip-rule="evenodd" d="M22.001 1.158 11.258 11.9l-.003.002L.512 1.159 1.572.1l9.684 9.683L20.94.097 22 1.157Z" /></symbol>

  <symbol id="check" viewBox="0 0 26 19" xmlns="http://www.w3.org/2000/svg"><g clip-path="url(#a)"><path fill-rule="evenodd" clip-rule="evenodd" d="M23.823.282a.5.5 0 0 1 .103.7l-12.79 17.214-.409-.424c-1.44-1.492-3.887-3.814-5.982-5.77a515.135 515.135 0 0 0-3.52-3.253l-.301-.276.336-.37.337-.37.304.278a460.389 460.389 0 0 1 3.526 3.26c1.908 1.78 4.125 3.88 5.608 5.385L23.123.386a.5.5 0 0 1 .7-.104ZM.891 7.766a.5.5 0 0 1 .706-.032l-.337.369-.336.37a.5.5 0 0 1-.033-.707Z"/></g><defs><clipPath id="a"><path fill="#fff" d="M.703.683h24.593v17.754H.703z"/></clipPath></defs></symbol>

  <symbol id="koza" viewBox="0 0 64 64" fill="none" xmlns="http://www.w3.org/2000/svg"><path d="M34.043 61.81c4.928-2.118 8.132-6.43 10.034-10.589 2.974-6.501 13.479-9.189 16.089-11.041 3.623-2.571.295-7.775-5.092-6.914-5.804.928-7.205 3.454-10.704 4.985-1.785.778-3.045.528-3.283-2.767-.175-2.416 2.944-21.399 3.893-30.15.325-2.996-.923-4.703-3.333-5.025-2.731-.364-4.145 1.122-4.722 3.858-1.44 6.813-3.723 20.167-4.681 20.921-5.149 3.23-12.013 7.456-18.148-.752 0 0-2.935-15.397-3.392-18.505-.79-5.38-8.055-4.409-7.46 1.2.559 5.284 2.292 17.751.774 22.18C2.685 33.102.331 46.459 5.517 54.592 10.633 62.617 24.29 66 34.043 61.81Z" fill="#CCEF5C"/><path d="M15.703 40.203c1.538 7.388 10.464 6.558 9.9-.48-.456-5.725-2.195-15.727-2.76-18.226-1.152-5.115-10.06-3.979-9.332 2.06.473 3.92.996 10.895 2.192 16.646Z" fill="#9EC525"/><path d="M17.35 39.45c1.413 6.132 7.873 4.427 7.544-1.304-.329-5.733-1.655-14.47-2.06-17.001-.95-5.913-8.544-3.252-7.927 1.104.617 4.356 1.388 12.63 2.442 17.202Z" fill="#CCEF5C"/><path d="M22.631 41.813c.123 8.788 9.922 8.31 10.69 1.732.667-5.703-.745-18.276-.85-20.84-.197-4.769-8.915-4.803-9.202.614-.23 4.395-.704 13.803-.638 18.494Z" fill="#9EC525"/><path d="M24.295 42.073c-.25 5.465 7.136 6.084 7.671.368.537-5.716.41-17.936.367-20.498-.073-4.459-7.527-4.3-7.737 1.175-.167 4.395-.087 14.267-.3 18.955Z" fill="#CCEF5C"/></symbol>


  <symbol id="logo" viewBox="0 0 160 28" xmlns="http://www.w3.org/2000/svg"><g clip-path="url(#a)"><path d="M19.063 0H0v4.485h19.056a3.204 3.204 0 0 1 3.407 3.407 3.205 3.205 0 0 1-3.407 3.407H4.486V8.971H0v18.106h19.056a7.91 7.91 0 0 0 5.515-13.542 7.88 7.88 0 0 0 2.39-5.643A7.83 7.83 0 0 0 19.063 0Zm0 22.592H4.485v-6.808H19.07a3.206 3.206 0 0 1 3.407 3.407 3.204 3.204 0 0 1-3.413 3.4Zm97.359-3.407a7.826 7.826 0 0 1-7.635 7.88H89.792v-4.473h18.725a3.205 3.205 0 0 0 3.407-3.407 3.196 3.196 0 0 0-.932-2.475 3.2 3.2 0 0 0-2.475-.932H97.739a7.818 7.818 0 0 1-7.5-7.874A7.819 7.819 0 0 1 97.739 0h16.158v4.485H98.131a3.204 3.204 0 0 0-3.407 3.407 3.204 3.204 0 0 0 3.407 3.407h10.644a7.822 7.822 0 0 1 7.647 7.886Zm-49.915-3.407v11.3H62.01V15.783a3.407 3.407 0 1 0-6.814 0v11.293h-4.48V15.784c0-5.196 3.536-7.892 7.893-7.892 4.357 0 7.886 2.696 7.886 7.892l.012-.006ZM148.75 0v4.485a3.333 3.333 0 0 0-2.433.974 3.332 3.332 0 0 0-.974 2.433h3.407v4.485h-3.407v14.706h-4.485V12.377h-1.704V7.892h1.704A7.894 7.894 0 0 1 148.75 0Zm7.843 12.377v6.808a3.332 3.332 0 0 0 2.09 3.17c.419.167.867.248 1.317.237v4.485a7.899 7.899 0 0 1-7.892-7.892v-6.808h-1.704V7.892h1.704V0h4.485v7.892H160v4.485h-3.407ZM38.836 7.892a9.595 9.595 0 1 0-.05 19.191 9.595 9.595 0 0 0 .05-19.19Zm0 14.706a5.11 5.11 0 1 1 5.11-5.11 5.11 5.11 0 0 1-5.11 5.104v.006Zm89.461-14.706a9.596 9.596 0 1 0 6.764 2.815 9.593 9.593 0 0 0-6.777-2.815h.013Zm0 14.706a5.114 5.114 0 0 1-4.722-3.155 5.11 5.11 0 1 1 9.44.001 5.122 5.122 0 0 1-2.773 2.763 5.11 5.11 0 0 1-1.958.385l.013.006ZM83.468 9.375a9.59 9.59 0 1 0 4.485 8.113V0h-4.485v9.375Zm-5.11 13.217a5.11 5.11 0 1 1 0-10.22 5.11 5.11 0 0 1 0 10.22Z" /></g><defs><clipPath id="a"><path fill="#fff" d="M0 0h160v27.077H0z"/></clipPath></defs></symbol>
</svg>